<svg width="21" height="22" viewBox="0 0 21 22" fill="none" xmlns="http://www.w3.org/2000/svg">
<path d="M10.5048 5.60928C7.52354 5.60928 5.11885 8.01396 5.11885 10.9952C5.11885 13.9765 7.52354 16.3812 10.5048 16.3812C13.486 16.3812 15.8907 13.9765 15.8907 10.9952C15.8907 8.01396 13.486 5.60928 10.5048 5.60928ZM10.5048 14.4968C8.57822 14.4968 7.00322 12.9265 7.00322 10.9952C7.00322 9.06396 8.57353 7.49365 10.5048 7.49365C12.436 7.49365 14.0063 9.06396 14.0063 10.9952C14.0063 12.9265 12.4313 14.4968 10.5048 14.4968ZM17.3673 5.38896C17.3673 6.0874 16.8048 6.64522 16.111 6.64522C15.4126 6.64522 14.8548 6.08271 14.8548 5.38896C14.8548 4.69521 15.4173 4.13271 16.111 4.13271C16.8048 4.13271 17.3673 4.69521 17.3673 5.38896ZM20.9345 6.66397C20.8548 4.98115 20.4704 3.49053 19.2376 2.2624C18.0095 1.03428 16.5188 0.649902 14.836 0.565527C13.1017 0.46709 7.90322 0.46709 6.16885 0.565527C4.49072 0.645215 3.0001 1.02959 1.76729 2.25771C0.534473 3.48584 0.154785 4.97646 0.0704102 6.65928C-0.0280273 8.39365 -0.0280273 13.5921 0.0704102 15.3265C0.150098 17.0093 0.534473 18.4999 1.76729 19.728C3.0001 20.9562 4.48604 21.3405 6.16885 21.4249C7.90322 21.5233 13.1017 21.5233 14.836 21.4249C16.5188 21.3452 18.0095 20.9608 19.2376 19.728C20.4657 18.4999 20.8501 17.0093 20.9345 15.3265C21.0329 13.5921 21.0329 8.39834 20.9345 6.66397ZM18.6938 17.1874C18.3282 18.1062 17.6204 18.814 16.697 19.1843C15.3142 19.7327 12.0329 19.6062 10.5048 19.6062C8.97666 19.6062 5.69072 19.728 4.3126 19.1843C3.39385 18.8187 2.68604 18.1108 2.31572 17.1874C1.76729 15.8046 1.89385 12.5233 1.89385 10.9952C1.89385 9.46709 1.77197 6.18115 2.31572 4.80303C2.68135 3.88428 3.38916 3.17646 4.3126 2.80615C5.69541 2.25771 8.97666 2.38428 10.5048 2.38428C12.0329 2.38428 15.3188 2.2624 16.697 2.80615C17.6157 3.17178 18.3235 3.87959 18.6938 4.80303C19.2423 6.18584 19.1157 9.46709 19.1157 10.9952C19.1157 12.5233 19.2423 15.8093 18.6938 17.1874Z" fill="#56C0CC"/>
</svg>
