<svg width="22" height="20" viewBox="0 0 22 20" fill="none" xmlns="http://www.w3.org/2000/svg">
<path d="M5.0635 20H0.605134V6.64732H5.0635V20ZM2.83192 4.82589C1.40658 4.82589 0.25 3.72768 0.25 2.40179C0.25 1.76479 0.522023 1.15389 1.00623 0.703467C1.49043 0.253045 2.14715 0 2.83192 0C3.51669 0 4.17341 0.253045 4.65761 0.703467C5.14182 1.15389 5.41384 1.76479 5.41384 2.40179C5.41384 3.72768 4.25725 4.82589 2.83192 4.82589ZM21.7452 20H17.2964V13.5C17.2964 11.9509 17.2628 9.96429 14.9785 9.96429C12.6605 9.96429 12.3054 11.6473 12.3054 13.3884V20H7.85178V6.64732H12.1278V8.46875H12.1902C12.7853 7.41964 14.2394 6.3125 16.4086 6.3125C20.9198 6.3125 21.75 9.07589 21.75 12.6652V20H21.7452Z" fill="#56C0CC"/>
</svg>
