<svg width="16" height="14" viewBox="0 0 16 14" fill="none" xmlns="http://www.w3.org/2000/svg">
<path d="M9.59375 0.0873971C9.23438 0.246772 9 0.606147 9 0.999897V2.9999H5.5C2.4625 2.9999 0 5.4624 0 8.4999C0 12.0405 2.54688 13.6218 3.13125 13.9405C3.20937 13.9843 3.29688 13.9999 3.38438 13.9999C3.725 13.9999 4 13.7218 4 13.3843C4 13.1499 3.86562 12.9343 3.69375 12.7749C3.4 12.4968 3 11.9499 3 10.9999C3 9.34365 4.34375 7.9999 6 7.9999H9V9.9999C9 10.3936 9.23125 10.753 9.59375 10.9124C9.95625 11.0718 10.375 11.0061 10.6687 10.7436L15.6687 6.24365C15.8781 6.05302 16 5.78427 16 5.4999C16 5.21552 15.8812 4.94677 15.6687 4.75615L10.6687 0.256147C10.375 -0.00947782 9.95312 -0.0751029 9.59375 0.0873971Z" fill="#56C0CC"/>
</svg>
