<svg width="22" height="20" viewBox="0 0 22 20" fill="none" xmlns="http://www.w3.org/2000/svg">
<path d="M11.0003 15.9583C12.3545 15.9583 13.5055 15.4844 14.4534 14.5365C15.4014 13.5885 15.8753 12.4375 15.8753 11.0833C15.8753 9.72917 15.4014 8.57812 14.4534 7.63021C13.5055 6.68229 12.3545 6.20833 11.0003 6.20833C9.64616 6.20833 8.49512 6.68229 7.5472 7.63021C6.59928 8.57812 6.12532 9.72917 6.12532 11.0833C6.12532 12.4375 6.59928 13.5885 7.5472 14.5365C8.49512 15.4844 9.64616 15.9583 11.0003 15.9583ZM11.0003 13.7917C10.242 13.7917 9.60102 13.5299 9.07741 13.0063C8.5538 12.4826 8.29199 11.8417 8.29199 11.0833C8.29199 10.325 8.5538 9.68403 9.07741 9.16042C9.60102 8.63681 10.242 8.375 11.0003 8.375C11.7587 8.375 12.3996 8.63681 12.9232 9.16042C13.4469 9.68403 13.7087 10.325 13.7087 11.0833C13.7087 11.8417 13.4469 12.4826 12.9232 13.0063C12.3996 13.5299 11.7587 13.7917 11.0003 13.7917ZM2.33366 19.75C1.73783 19.75 1.22776 19.5378 0.80345 19.1135C0.379145 18.6892 0.166992 18.1792 0.166992 17.5833V4.58333C0.166992 3.9875 0.379145 3.47743 0.80345 3.05313C1.22776 2.62882 1.73783 2.41667 2.33366 2.41667H5.74616L7.75032 0.25H14.2503L16.2545 2.41667H19.667C20.2628 2.41667 20.7729 2.62882 21.1972 3.05313C21.6215 3.47743 21.8337 3.9875 21.8337 4.58333V17.5833C21.8337 18.1792 21.6215 18.6892 21.1972 19.1135C20.7729 19.5378 20.2628 19.75 19.667 19.75H2.33366Z" fill="#10387A"/>
</svg>
