<svg width="39" height="40" viewBox="0 0 39 40" fill="none" xmlns="http://www.w3.org/2000/svg">
<rect x="0.5" y="0.5" width="38" height="39" rx="19" stroke="#56C0CC"/>
<g clip-path="url(#clip0_353_133)">
<path d="M19.5043 14.6094C16.523 14.6094 14.1184 17.0141 14.1184 19.9953C14.1184 22.9766 16.523 25.3813 19.5043 25.3813C22.4855 25.3813 24.8902 22.9766 24.8902 19.9953C24.8902 17.0141 22.4855 14.6094 19.5043 14.6094ZM19.5043 23.4969C17.5777 23.4969 16.0027 21.9266 16.0027 19.9953C16.0027 18.0641 17.573 16.4938 19.5043 16.4938C21.4355 16.4938 23.0059 18.0641 23.0059 19.9953C23.0059 21.9266 21.4309 23.4969 19.5043 23.4969ZM26.3668 14.3891C26.3668 15.0875 25.8043 15.6453 25.1105 15.6453C24.4121 15.6453 23.8543 15.0828 23.8543 14.3891C23.8543 13.6953 24.4168 13.1328 25.1105 13.1328C25.8043 13.1328 26.3668 13.6953 26.3668 14.3891ZM29.934 15.6641C29.8543 13.9813 29.4699 12.4906 28.2371 11.2625C27.009 10.0344 25.5184 9.65002 23.8355 9.56565C22.1012 9.46721 16.9027 9.46721 15.1684 9.56565C13.4902 9.64534 11.9996 10.0297 10.7668 11.2578C9.53398 12.486 9.1543 13.9766 9.06992 15.6594C8.97148 17.3938 8.97148 22.5922 9.06992 24.3266C9.14961 26.0094 9.53398 27.5 10.7668 28.7281C11.9996 29.9563 13.4855 30.3406 15.1684 30.425C16.9027 30.5235 22.1012 30.5235 23.8355 30.425C25.5184 30.3453 27.009 29.961 28.2371 28.7281C29.4652 27.5 29.8496 26.0094 29.934 24.3266C30.0324 22.5922 30.0324 17.3985 29.934 15.6641ZM27.6934 26.1875C27.3277 27.1063 26.6199 27.8141 25.6965 28.1844C24.3137 28.7328 21.0324 28.6063 19.5043 28.6063C17.9762 28.6063 14.6902 28.7281 13.3121 28.1844C12.3934 27.8188 11.6855 27.111 11.3152 26.1875C10.7668 24.8047 10.8934 21.5235 10.8934 19.9953C10.8934 18.4672 10.7715 15.1813 11.3152 13.8031C11.6809 12.8844 12.3887 12.1766 13.3121 11.8063C14.6949 11.2578 17.9762 11.3844 19.5043 11.3844C21.0324 11.3844 24.3184 11.2625 25.6965 11.8063C26.6152 12.1719 27.323 12.8797 27.6934 13.8031C28.2418 15.186 28.1152 18.4672 28.1152 19.9953C28.1152 21.5235 28.2418 24.8094 27.6934 26.1875Z" fill="#56C0CC"/>
</g>
<defs>
<clipPath id="clip0_353_133">
<rect width="21" height="24" fill="white" transform="translate(9 8)"/>
</clipPath>
</defs>
</svg>
