<svg width="40" height="40" viewBox="0 0 40 40" fill="none" xmlns="http://www.w3.org/2000/svg">
<rect x="0.5" y="0.5" width="39" height="39" rx="19.5" stroke="#56C0CC"/>
<g clip-path="url(#clip0_353_127)">
<path d="M14.0635 30H9.60513V16.6473H14.0635V30ZM11.8319 14.8259C10.4066 14.8259 9.25 13.7277 9.25 12.4018C9.25 11.7648 9.52202 11.1539 10.0062 10.7035C10.4904 10.253 11.1472 10 11.8319 10C12.5167 10 13.1734 10.253 13.6576 10.7035C14.1418 11.1539 14.4138 11.7648 14.4138 12.4018C14.4138 13.7277 13.2573 14.8259 11.8319 14.8259ZM30.7452 30H26.2964V23.5C26.2964 21.9509 26.2628 19.9643 23.9785 19.9643C21.6605 19.9643 21.3054 21.6473 21.3054 23.3884V30H16.8518V16.6473H21.1278V18.4688H21.1902C21.7853 17.4196 23.2394 16.3125 25.4086 16.3125C29.9198 16.3125 30.75 19.0759 30.75 22.6652V30H30.7452Z" fill="#56C0CC"/>
</g>
<defs>
<clipPath id="clip0_353_127">
<rect width="21.5" height="20" fill="white" transform="translate(9.25 10)"/>
</clipPath>
</defs>
</svg>
