<svg width="16" height="22" viewBox="0 0 16 22" fill="none" xmlns="http://www.w3.org/2000/svg">
<path d="M15.4097 18.0275C15.3634 17.8086 14.7307 17.1567 14.7307 17.1567C14.4824 16.8945 12.6513 14.9787 12.2869 14.6737C11.9748 14.4124 11.6218 14.1165 11.0576 14.5244C10.6287 14.8321 9.46844 15.4795 9.09459 15.6807C8.83164 15.8228 8.63649 15.829 8.30142 15.4726C8.24488 15.414 6.56879 13.8314 5.64266 12.1137C4.82084 10.5916 4.46643 8.95397 4.35264 8.32009C4.28107 7.93281 4.45873 7.83 4.77654 7.68311C4.97146 7.59642 5.88199 7.06679 5.95887 7.01221C6.11554 6.89679 6.42959 6.5961 6.42959 6.5961C6.74316 6.305 6.74519 5.95154 6.71935 5.70853C6.69901 5.54009 6.56859 2.36335 6.555 2.06388C6.51552 1.16535 6.18154 0.996585 5.8414 0.892605C5.67473 0.844615 4.15493 0.297493 3.47894 0.642844L3.36079 0.701738C2.70224 1.02791 1.33214 1.70646 0.589542 3.72208C0.418675 4.18586 0.313814 4.70078 0.267844 5.29776C0.191524 6.3731 0.350118 7.63923 0.719694 8.87946C0.728105 8.90633 1.2705 10.8522 1.59002 11.6948C2.60076 14.3576 4.03306 16.577 5.74379 18.0937C7.93003 20.0313 8.93669 20.6606 9.55531 20.8886C9.82619 20.9884 10.4465 21.0608 10.5745 21.0946C11.3801 21.3121 13.5904 21.0303 14.3788 20.0899C15.1249 19.2015 15.4624 18.3084 15.4097 18.0275Z" fill="#10387A"/>
</svg>
