<svg width="25" height="21" viewBox="0 0 25 21" fill="none" xmlns="http://www.w3.org/2000/svg">
<path d="M24.3343 1.30171C24.6756 1.70462 24.7609 2.26578 24.5474 2.74682L17.2621 19.2999C17.092 19.6857 16.7525 19.9729 16.3422 20.0764C15.9318 20.1799 15.4977 20.0902 15.1623 19.8312L10.7516 16.4377L7.08407 18.7508C6.60676 19.0543 5.99011 19.0314 5.53304 18.6953C5.07596 18.3592 4.87636 17.7763 5.02324 17.2284L5.95351 13.7588C5.99802 13.5928 6.10256 13.4518 6.248 13.3573L15.238 7.63556C15.5488 7.43863 15.6485 7.03383 15.4662 6.71805C15.284 6.40226 14.8858 6.27773 14.5609 6.44419L4.1085 11.6804L0.93563 8.86342C0.554675 8.5255 0.390408 8.0099 0.509263 7.51683C0.628117 7.02375 1.00784 6.63621 1.49682 6.50485L22.9388 0.865267C23.4507 0.731165 23.9919 0.902951 24.3343 1.30171Z" fill="white"/>
</svg>
