<svg width="309" height="465" viewBox="0 0 309 465" fill="none" xmlns="http://www.w3.org/2000/svg">
<path d="M421.125 154.525L415.739 157.635L376.411 147.111L268.143 209.62L258.041 247.269L222.958 267.525L189.209 258.493L129.049 293.227L124.705 309.419L86.1787 331.661" stroke="#56C0CC" stroke-opacity="0.2" stroke-width="2" stroke-miterlimit="10"/>
<path d="M86.1793 331.662C85.5971 330.653 84.3069 330.308 83.2978 330.89C82.2886 331.473 81.9425 332.763 82.5248 333.771C83.1071 334.78 84.3972 335.125 85.4064 334.543C86.4155 333.96 86.7616 332.67 86.1793 331.662Z" stroke="#56C0CC" stroke-opacity="0.2" stroke-width="2" stroke-miterlimit="10"/>
<path d="M456.57 215.918L431.39 230.455L406.932 223.91L306.937 281.642L262.768 269.822L203.521 304.029L187.892 299.846L118.588 339.859" stroke="#56C0CC" stroke-opacity="0.2" stroke-width="2" stroke-miterlimit="10"/>
<path d="M118.588 339.859C118.005 338.85 116.715 338.505 115.706 339.088C114.697 339.67 114.351 340.96 114.933 341.969C115.515 342.977 116.805 343.323 117.815 342.74C118.824 342.157 119.17 340.867 118.588 339.859Z" stroke="#56C0CC" stroke-opacity="0.2" stroke-width="2" stroke-miterlimit="10"/>
<path d="M411.574 137.98L340.793 178.846L331.693 212.742L228.972 272.049L212.548 333.265L164.769 360.85" stroke="#56C0CC" stroke-opacity="0.2" stroke-width="2" stroke-miterlimit="10"/>
<path d="M164.768 360.85C164.186 359.842 162.896 359.497 161.887 360.079C160.877 360.662 160.531 361.952 161.114 362.96C161.696 363.969 162.986 364.314 163.995 363.732C165.004 363.149 165.35 361.859 164.768 360.85Z" stroke="#56C0CC" stroke-opacity="0.2" stroke-width="2" stroke-miterlimit="10"/>
<path d="M129.324 246.544L142.583 238.889L183.174 249.745L236.596 218.902L282.066 231.07L344.763 194.872L356.077 152.705L404.075 124.993" stroke="#56C0CC" stroke-opacity="0.2" stroke-width="2" stroke-miterlimit="10"/>
<path d="M129.69 246.333C129.108 245.324 127.818 244.979 126.809 245.562C125.799 246.144 125.453 247.434 126.036 248.443C126.618 249.451 127.908 249.796 128.917 249.214C129.926 248.631 130.272 247.341 129.69 246.333Z" stroke="#56C0CC" stroke-opacity="0.2" stroke-width="2" stroke-miterlimit="10"/>
<g opacity="0.57">
<path d="M391.972 104.03L385.536 128.042L340.578 153.998L323.808 149.511L262.485 184.915L251.7 225.112L236.256 234.028" stroke="#56C0CC" stroke-opacity="0.2" stroke-miterlimit="10"/>
<path d="M236.154 234.087C235.572 233.079 234.282 232.734 233.272 233.316C232.263 233.899 231.917 235.189 232.499 236.197C233.082 237.206 234.372 237.551 235.381 236.968C236.39 236.386 236.736 235.096 236.154 234.087Z" stroke="#56C0CC" stroke-opacity="0.2" stroke-miterlimit="10"/>
</g>
<path d="M357.501 44.3243L297.611 78.9019L291.093 103.195L256.945 122.91L226.454 114.745L182.154 140.321" stroke="#56C0CC" stroke-opacity="0.2" stroke-width="2" stroke-miterlimit="10"/>
<path d="M182.052 140.38C181.47 139.372 180.18 139.026 179.171 139.609C178.162 140.192 177.816 141.482 178.398 142.49C178.98 143.499 180.27 143.844 181.279 143.261C182.289 142.679 182.635 141.389 182.052 140.38Z" stroke="#56C0CC" stroke-opacity="0.2" stroke-width="2" stroke-miterlimit="10"/>
<path d="M384.849 91.6929L334.482 120.772L330.015 137.425L236.042 191.679L186.291 178.36L137.686 206.422" stroke="#56C0CC" stroke-opacity="0.2" stroke-width="2" stroke-miterlimit="10"/>
<path d="M137.686 206.422C137.104 205.413 135.814 205.068 134.805 205.651C133.795 206.233 133.449 207.523 134.032 208.532C134.614 209.54 135.904 209.885 136.913 209.303C137.922 208.72 138.268 207.43 137.686 206.422Z" stroke="#56C0CC" stroke-opacity="0.2" stroke-width="2" stroke-miterlimit="10"/>
<path d="M345.566 23.653L300.323 49.774L296.084 65.5737L273.996 78.3261L239.095 68.9864L205.21 88.5497" stroke="#56C0CC" stroke-opacity="0.2" stroke-width="2" stroke-miterlimit="10"/>
<path d="M205.211 88.5496C204.628 87.5411 203.338 87.1958 202.329 87.7785C201.32 88.3611 200.974 89.651 201.556 90.6595C202.138 91.668 203.428 92.0133 204.438 91.4306C205.447 90.848 205.793 89.5581 205.211 88.5496Z" stroke="#56C0CC" stroke-opacity="0.2" stroke-width="2" stroke-miterlimit="10"/>
<path d="M436.931 181.901L426.764 187.771L410.109 183.314L275.937 260.778L262.592 310.517L213.987 338.579" stroke="#56C0CC" stroke-opacity="0.2" stroke-miterlimit="10"/>
<path d="M213.987 338.579C213.405 337.57 212.115 337.225 211.106 337.808C210.097 338.391 209.751 339.68 210.333 340.689C210.915 341.697 212.205 342.043 213.214 341.46C214.224 340.877 214.57 339.588 213.987 338.579Z" stroke="#56C0CC" stroke-opacity="0.2" stroke-miterlimit="10"/>
<g opacity="0.57">
<path d="M444.691 195.341L395.143 223.948L369.513 217.095L320.703 245.276L310.157 284.585L282.09 300.789" stroke="#56C0CC" stroke-opacity="0.2" stroke-width="2" stroke-miterlimit="10"/>
<path d="M282.09 300.789C281.508 299.78 280.218 299.435 279.208 300.018C278.199 300.6 277.853 301.89 278.435 302.899C279.018 303.907 280.308 304.253 281.317 303.67C282.326 303.087 282.672 301.797 282.09 300.789Z" stroke="#56C0CC" stroke-opacity="0.2" stroke-width="2" stroke-miterlimit="10"/>
</g>
<g opacity="0.57">
<path d="M464.279 229.27L412.999 258.876L388.702 252.374L345.944 277.061L337.766 307.542L293.466 333.119" stroke="#56C0CC" stroke-opacity="0.2" stroke-miterlimit="10"/>
<path d="M293.466 333.119C292.884 332.11 291.594 331.765 290.584 332.348C289.575 332.93 289.229 334.22 289.811 335.229C290.394 336.237 291.684 336.583 292.693 336C293.702 335.417 294.048 334.127 293.466 333.119Z" stroke="#56C0CC" stroke-opacity="0.2" stroke-miterlimit="10"/>
</g>
<path d="M416.048 145.73L298.519 213.586L289.302 247.94L273.924 256.818L238.066 247.222L164.295 289.814L160.594 303.608L124.926 324.201" stroke="#56C0CC" stroke-opacity="0.2" stroke-miterlimit="10"/>
<path d="M125.348 323.987C124.882 323.18 123.85 322.904 123.043 323.37C122.235 323.836 121.958 324.868 122.424 325.675C122.89 326.481 123.922 326.758 124.729 326.292C125.537 325.825 125.814 324.793 125.348 323.987Z" fill="#56C0CC" fill-opacity="0.2"/>
<path d="M426.523 163.874L405.225 176.171L394.335 216.759L340.913 247.602L328.716 293.065L266.019 329.263L223.845 317.977L175.846 345.689" stroke="#56C0CC" stroke-opacity="0.2" stroke-miterlimit="10"/>
<path d="M175.859 345.711C175.393 344.904 174.361 344.628 173.553 345.094C172.746 345.56 172.469 346.592 172.935 347.399C173.401 348.206 174.433 348.482 175.24 348.016C176.047 347.55 176.324 346.518 175.859 345.711Z" fill="#56C0CC" fill-opacity="0.2"/>
<path d="M459.387 220.797L453.021 224.472L447.376 245.516L379.73 284.571L374.128 305.452L328.885 331.573L298.583 323.464L259.618 345.96" stroke="#56C0CC" stroke-opacity="0.2" stroke-width="2" stroke-miterlimit="10"/>
<path d="M261.08 345.117C260.614 344.31 259.582 344.034 258.774 344.5C257.967 344.966 257.69 345.998 258.156 346.805C258.622 347.611 259.654 347.888 260.461 347.421C261.269 346.955 261.546 345.923 261.08 345.117Z" fill="#56C0CC" fill-opacity="0.2"/>
<g opacity="0.57">
<path d="M422.487 156.884L350.53 198.429L342.692 227.642L289.263 258.49" stroke="#56C0CC" stroke-opacity="0.2" stroke-miterlimit="10"/>
<path d="M290.725 257.646C290.259 256.839 289.227 256.563 288.419 257.029C287.612 257.495 287.335 258.527 287.801 259.334C288.267 260.141 289.299 260.417 290.106 259.951C290.914 259.485 291.191 258.453 290.725 257.646Z" fill="#56C0CC" fill-opacity="0.2"/>
</g>
<g opacity="0.57">
<path d="M379.51 82.4456L350.208 99.3631L330.764 94.1596L228.481 153.213L214.5 149.471L191.907 162.515" stroke="#56C0CC" stroke-opacity="0.2" stroke-miterlimit="10"/>
<path d="M193.369 161.671C192.903 160.864 191.871 160.588 191.064 161.054C190.257 161.52 189.98 162.552 190.446 163.359C190.911 164.166 191.944 164.442 192.751 163.976C193.558 163.509 193.835 162.478 193.369 161.671Z" fill="#56C0CC" fill-opacity="0.2"/>
</g>
<path d="M395.253 109.713L382.214 117.241L341.63 106.381L279.942 141.996L234.471 129.828L171.774 166.026L160.461 208.193L98.8896 243.741" stroke="#56C0CC" stroke-opacity="0.2" stroke-miterlimit="10"/>
<path d="M100.347 242.89C99.881 242.083 98.8489 241.807 98.0415 242.273C97.2342 242.739 96.9574 243.771 97.4232 244.578C97.889 245.385 98.9211 245.661 99.7284 245.195C100.536 244.729 100.813 243.697 100.347 242.89Z" fill="#56C0CC" fill-opacity="0.2"/>
<path d="M362.393 52.7973L341.876 64.6425L320.829 59.0102L267.334 89.8955L246.445 84.2991L201.202 110.42L193.078 140.725L154.113 163.221" stroke="#56C0CC" stroke-opacity="0.2" stroke-miterlimit="10"/>
<path d="M155.574 162.377C155.109 161.57 154.076 161.294 153.269 161.76C152.462 162.226 152.185 163.258 152.651 164.065C153.117 164.872 154.149 165.148 154.956 164.682C155.763 164.216 156.04 163.184 155.574 162.377Z" fill="#56C0CC" fill-opacity="0.2"/>
<g opacity="0.57">
<path d="M349.67 30.7601L338.209 37.3769L315.676 31.3468L282.756 50.3531L257.559 43.6104L221.19 64.6085L214.349 90.0812L186.831 105.969" stroke="#56C0CC" stroke-opacity="0.2" stroke-miterlimit="10"/>
<path d="M188.246 105.045C187.78 104.238 186.748 103.962 185.941 104.428C185.134 104.894 184.857 105.926 185.323 106.733C185.788 107.54 186.82 107.816 187.628 107.35C188.435 106.884 188.712 105.852 188.246 105.045Z" fill="#56C0CC" fill-opacity="0.2"/>
</g>
<path d="M368.191 62.8408L358.09 68.6726L351.529 93.127L236.456 159.565L224.608 203.725L190.138 223.626L186.403 237.548L111.449 280.822" stroke="#56C0CC" stroke-opacity="0.2" stroke-miterlimit="10"/>
<path d="M111.449 280.822C110.867 279.814 109.576 279.469 108.567 280.051C107.558 280.634 107.212 281.924 107.794 282.932C108.377 283.941 109.667 284.286 110.676 283.703C111.685 283.121 112.031 281.831 111.449 280.822Z" stroke="#56C0CC" stroke-opacity="0.2" stroke-miterlimit="10"/>
</svg>
