<svg width="272" height="450" viewBox="0 0 272 450" fill="none" xmlns="http://www.w3.org/2000/svg">
<g style="mix-blend-mode:color-dodge" opacity="0.6" clip-path="url(#clip0_1_34791)">
<path d="M-151.139 288.047L-145.51 285.401L-107.207 299.195L5.93547 246.014L19.1673 209.347L55.8299 192.114L88.6995 203.952L151.568 174.401L157.259 158.632L197.519 139.708" stroke="#56C0CC" stroke-opacity="0.2" stroke-width="2" stroke-miterlimit="10"/>
<path d="M197.519 139.708C198.015 140.762 199.271 141.214 200.326 140.719C201.38 140.223 201.834 138.967 201.338 137.913C200.843 136.859 199.586 136.406 198.532 136.902C197.477 137.398 197.024 138.654 197.519 139.708Z" stroke="#56C0CC" stroke-opacity="0.2" stroke-width="2" stroke-miterlimit="10"/>
<path d="M-181.296 223.891L-154.983 211.522L-131.161 220.101L-26.665 170.984L16.3528 186.476L78.2668 157.374L93.4891 162.856L165.913 128.814" stroke="#56C0CC" stroke-opacity="0.2" stroke-width="2" stroke-miterlimit="10"/>
<path d="M165.913 128.814C166.408 129.868 167.665 130.32 168.719 129.824C169.774 129.329 170.227 128.073 169.732 127.019C169.237 125.965 167.98 125.512 166.925 126.008C165.871 126.504 165.418 127.76 165.913 128.814Z" stroke="#56C0CC" stroke-opacity="0.2" stroke-width="2" stroke-miterlimit="10"/>
<path d="M-143.012 305.336L-69.0454 270.568L-57.1263 237.557L50.2188 187.1L71.7332 127.482L121.663 104.013" stroke="#56C0CC" stroke-opacity="0.2" stroke-width="2" stroke-miterlimit="10"/>
<path d="M121.663 104.013C122.158 105.067 123.415 105.519 124.469 105.023C125.524 104.528 125.977 103.271 125.482 102.217C124.987 101.164 123.73 100.711 122.675 101.207C121.621 101.702 121.168 102.959 121.663 104.013Z" stroke="#56C0CC" stroke-opacity="0.2" stroke-width="2" stroke-miterlimit="10"/>
<path d="M147.366 220.895L133.511 227.408L93.9768 213.176L38.1503 239.417L-6.13606 223.468L-71.6552 254.264L-86.4747 295.331L-136.634 318.908" stroke="#56C0CC" stroke-opacity="0.2" stroke-width="2" stroke-miterlimit="10"/>
<path d="M146.985 221.075C147.481 222.129 148.737 222.581 149.792 222.085C150.846 221.59 151.3 220.333 150.804 219.279C150.309 218.226 149.052 217.773 147.998 218.269C146.943 218.764 146.49 220.021 146.985 221.075Z" stroke="#56C0CC" stroke-opacity="0.2" stroke-width="2" stroke-miterlimit="10"/>
<g opacity="0.57">
<path d="M-126.336 340.815L-117.903 317.429L-70.9213 295.345L-54.5876 301.228L9.4956 271.106L23.6225 231.959L39.7617 224.373" stroke="#56C0CC" stroke-opacity="0.2" stroke-miterlimit="10"/>
<path d="M39.869 224.323C40.3644 225.377 41.6209 225.829 42.6755 225.333C43.73 224.838 44.1834 223.581 43.688 222.528C43.1926 221.474 41.9361 221.021 40.8815 221.517C39.8269 222.013 39.3736 223.269 39.869 224.323Z" stroke="#56C0CC" stroke-opacity="0.2" stroke-miterlimit="10"/>
</g>
<path d="M-97.0078 403.208L-34.4216 373.79L-25.8839 350.131L9.80104 333.357L39.4972 344.059L85.7914 322.298" stroke="#56C0CC" stroke-opacity="0.2" stroke-width="2" stroke-miterlimit="10"/>
<path d="M85.8983 322.248C86.3937 323.302 87.6502 323.754 88.7048 323.259C89.7593 322.763 90.2127 321.507 89.7173 320.453C89.2219 319.399 87.9654 318.947 86.9108 319.442C85.8562 319.938 85.4029 321.194 85.8983 322.248Z" stroke="#56C0CC" stroke-opacity="0.2" stroke-width="2" stroke-miterlimit="10"/>
<path d="M-120.276 353.707L-67.6427 328.967L-61.7902 312.749L36.4121 266.59L84.8669 284.047L135.66 260.172" stroke="#56C0CC" stroke-opacity="0.2" stroke-width="2" stroke-miterlimit="10"/>
<path d="M135.66 260.172C136.155 261.226 137.412 261.678 138.466 261.183C139.521 260.687 139.974 259.431 139.479 258.377C138.984 257.323 137.727 256.87 136.673 257.366C135.618 257.862 135.165 259.118 135.66 260.172Z" stroke="#56C0CC" stroke-opacity="0.2" stroke-width="2" stroke-miterlimit="10"/>
<path d="M-86.8547 424.81L-39.5752 402.586L-34.0225 387.199L-10.9403 376.349L23.0518 388.591L58.4618 371.947" stroke="#56C0CC" stroke-opacity="0.2" stroke-width="2" stroke-miterlimit="10"/>
<path d="M58.4617 371.947C58.9571 373.001 60.2136 373.454 61.2682 372.958C62.3228 372.462 62.7761 371.206 62.2808 370.152C61.7854 369.098 60.5289 368.646 59.4743 369.141C58.4197 369.637 57.9664 370.893 58.4617 371.947Z" stroke="#56C0CC" stroke-opacity="0.2" stroke-width="2" stroke-miterlimit="10"/>
<path d="M-164.586 259.438L-153.961 254.444L-137.74 260.286L2.47169 194.38L19.9521 145.941L70.7451 122.066" stroke="#56C0CC" stroke-opacity="0.2" stroke-miterlimit="10"/>
<path d="M70.7449 122.066C71.2403 123.12 72.4968 123.572 73.5514 123.076C74.606 122.581 75.0594 121.325 74.564 120.271C74.0686 119.217 72.8121 118.764 71.7575 119.26C70.7029 119.756 70.2496 121.012 70.7449 122.066Z" stroke="#56C0CC" stroke-opacity="0.2" stroke-miterlimit="10"/>
<g opacity="0.57">
<path d="M-171.188 245.393L-119.41 221.055L-94.4469 230.039L-43.44 206.063L-29.625 167.781L-0.294922 153.994" stroke="#56C0CC" stroke-opacity="0.2" stroke-width="2" stroke-miterlimit="10"/>
<path d="M-0.295095 153.994C0.200291 155.048 1.4568 155.501 2.51139 155.005C3.56598 154.509 4.01931 153.253 3.52393 152.199C3.02854 151.145 1.77204 150.693 0.717442 151.188C-0.337152 151.684 -0.79048 152.94 -0.295095 153.994Z" stroke="#56C0CC" stroke-opacity="0.2" stroke-width="2" stroke-miterlimit="10"/>
</g>
<g opacity="0.57">
<path d="M-187.853 209.937L-134.265 184.748L-110.601 193.271L-65.918 172.268L-55.2053 142.582L-8.91113 120.822" stroke="#56C0CC" stroke-opacity="0.2" stroke-miterlimit="10"/>
</g>
<path d="M-146.82 297.237L-24 239.507L-11.9265 206.05L4.14395 198.496L39.0678 211.074L116.159 174.838L121.007 161.403L158.28 143.883" stroke="#56C0CC" stroke-opacity="0.2" stroke-miterlimit="10"/>
<path d="M157.842 144.061C158.238 144.904 159.244 145.266 160.087 144.87C160.931 144.473 161.294 143.468 160.897 142.625C160.501 141.782 159.496 141.42 158.652 141.817C157.808 142.213 157.446 143.218 157.842 144.061Z" fill="#56C0CC" fill-opacity="0.2"/>
<path d="M-155.732 278.276L-133.475 267.815L-119.21 228.286L-63.3839 202.045L-47.4061 157.769L18.1131 126.972L59.1888 141.765L109.348 118.188" stroke="#56C0CC" stroke-opacity="0.2" stroke-miterlimit="10"/>
<path d="M109.337 118.166C109.733 119.009 110.739 119.371 111.582 118.974C112.426 118.578 112.789 117.573 112.392 116.73C111.996 115.886 110.991 115.524 110.147 115.921C109.304 116.317 108.941 117.322 109.337 118.166Z" fill="#56C0CC" fill-opacity="0.2"/>
<path d="M-183.692 218.792L-177.039 215.664L-169.643 195.171L-98.9533 161.943L-91.6145 141.607L-44.335 119.383L-14.822 130.012L25.8964 110.873" stroke="#56C0CC" stroke-opacity="0.2" stroke-width="2" stroke-miterlimit="10"/>
<path d="M24.3684 111.591C24.7647 112.434 25.7699 112.796 26.6136 112.399C27.4573 112.003 27.8199 110.998 27.4236 110.155C27.0273 109.312 26.0221 108.95 25.1784 109.346C24.3348 109.743 23.9721 110.748 24.3684 111.591Z" fill="#56C0CC" fill-opacity="0.2"/>
<g opacity="0.57">
<path d="M-115.733 363.371L-85.1121 348.977L-66.174 355.798L40.7128 305.556L54.3299 310.46L77.9391 299.363" stroke="#56C0CC" stroke-opacity="0.2" stroke-miterlimit="10"/>
<path d="M76.4114 300.081C76.8077 300.924 77.8129 301.286 78.6566 300.89C79.5002 300.493 79.8629 299.488 79.4666 298.645C79.0703 297.802 78.0651 297.44 77.2214 297.837C76.3777 298.233 76.0151 299.238 76.4114 300.081Z" fill="#56C0CC" fill-opacity="0.2"/>
</g>
<path d="M-129.127 334.876L-115.501 328.471L-75.974 342.706L-11.5089 312.405L32.7774 328.354L98.2966 297.557L113.116 256.491L177.459 226.247" stroke="#56C0CC" stroke-opacity="0.2" stroke-miterlimit="10"/>
<path d="M175.935 226.973C176.331 227.816 177.336 228.178 178.18 227.782C179.024 227.385 179.386 226.38 178.99 225.537C178.594 224.694 177.589 224.332 176.745 224.728C175.901 225.125 175.539 226.13 175.935 226.973Z" fill="#56C0CC" fill-opacity="0.2"/>
<path d="M-101.17 394.353L-79.7303 384.276L-59.2317 391.658L-3.32887 365.381L17.0161 372.715L64.2956 350.491L74.9399 320.978L115.658 301.838" stroke="#56C0CC" stroke-opacity="0.2" stroke-miterlimit="10"/>
<path d="M114.13 302.556C114.526 303.399 115.532 303.761 116.375 303.365C117.219 302.968 117.582 301.963 117.185 301.12C116.789 300.277 115.784 299.915 114.94 300.312C114.096 300.708 113.734 301.713 114.13 302.556Z" fill="#56C0CC" fill-opacity="0.2"/>
<g opacity="0.57">
<path d="M-90.3457 417.383L-78.3693 411.753L-56.4226 419.657L-22.0208 403.487L2.5191 412.324L40.526 394.46L49.4845 369.652L78.2417 356.135" stroke="#56C0CC" stroke-opacity="0.2" stroke-miterlimit="10"/>
<path d="M76.7532 356.937C77.1495 357.78 78.1547 358.142 78.9984 357.746C79.842 357.349 80.2047 356.344 79.8084 355.501C79.4121 354.658 78.4069 354.296 77.5632 354.693C76.7195 355.089 76.3569 356.094 76.7532 356.937Z" fill="#56C0CC" fill-opacity="0.2"/>
</g>
<path d="M-106.104 383.858L-95.5482 378.896L-86.9538 355.08L33.2996 298.556L48.8198 255.548L84.8408 238.617L89.7334 225.059L168.062 188.241" stroke="#56C0CC" stroke-opacity="0.2" stroke-miterlimit="10"/>
<path d="M168.061 188.241C168.557 189.295 169.813 189.748 170.868 189.252C171.922 188.756 172.376 187.5 171.88 186.446C171.385 185.392 170.128 184.94 169.074 185.436C168.019 185.931 167.566 187.188 168.061 188.241Z" stroke="#56C0CC" stroke-opacity="0.2" stroke-miterlimit="10"/>
</g>
<defs>
<clipPath id="clip0_1_34791">
<rect width="316" height="384" fill="white" transform="translate(137.523 0.165039) rotate(64.8245)"/>
</clipPath>
</defs>
</svg>
