<svg width="310" height="466" viewBox="0 0 310 466" fill="none" xmlns="http://www.w3.org/2000/svg">
<g style="mix-blend-mode:color-dodge" opacity="0.7" clip-path="url(#clip0_1_34859)">
<path d="M422.125 154.525L416.739 157.635L377.411 147.111L269.143 209.62L259.041 247.269L223.958 267.525L190.209 258.493L130.049 293.227L125.705 309.419L87.1787 331.661" stroke="#56C0CC" stroke-opacity="0.2" stroke-width="2" stroke-miterlimit="10"/>
<path d="M87.1793 331.662C86.5971 330.653 85.3069 330.308 84.2978 330.89C83.2886 331.473 82.9425 332.763 83.5248 333.771C84.1071 334.78 85.3972 335.125 86.4064 334.543C87.4155 333.96 87.7616 332.67 87.1793 331.662Z" stroke="#56C0CC" stroke-opacity="0.2" stroke-width="2" stroke-miterlimit="10"/>
<path d="M457.57 215.918L432.39 230.455L407.932 223.91L307.937 281.642L263.768 269.822L204.521 304.029L188.892 299.846L119.588 339.859" stroke="#56C0CC" stroke-opacity="0.2" stroke-width="2" stroke-miterlimit="10"/>
<path d="M119.588 339.859C119.005 338.85 117.715 338.505 116.706 339.088C115.697 339.67 115.351 340.96 115.933 341.969C116.515 342.977 117.805 343.323 118.815 342.74C119.824 342.157 120.17 340.867 119.588 339.859Z" stroke="#56C0CC" stroke-opacity="0.2" stroke-width="2" stroke-miterlimit="10"/>
<path d="M412.574 137.98L341.793 178.846L332.693 212.742L229.972 272.049L213.548 333.265L165.769 360.85" stroke="#56C0CC" stroke-opacity="0.2" stroke-width="2" stroke-miterlimit="10"/>
<path d="M165.768 360.85C165.186 359.842 163.896 359.497 162.887 360.079C161.877 360.662 161.531 361.952 162.114 362.96C162.696 363.969 163.986 364.314 164.995 363.732C166.004 363.149 166.35 361.859 165.768 360.85Z" stroke="#56C0CC" stroke-opacity="0.2" stroke-width="2" stroke-miterlimit="10"/>
<path d="M130.324 246.544L143.583 238.889L184.174 249.745L237.596 218.902L283.066 231.07L345.763 194.872L357.077 152.705L405.075 124.993" stroke="#56C0CC" stroke-opacity="0.2" stroke-width="2" stroke-miterlimit="10"/>
<path d="M130.69 246.333C130.108 245.324 128.818 244.979 127.809 245.562C126.799 246.144 126.453 247.434 127.036 248.443C127.618 249.451 128.908 249.796 129.917 249.214C130.926 248.631 131.272 247.341 130.69 246.333Z" stroke="#56C0CC" stroke-opacity="0.2" stroke-width="2" stroke-miterlimit="10"/>
<g opacity="0.57">
<path d="M392.972 104.03L386.536 128.042L341.578 153.998L324.808 149.511L263.485 184.915L252.7 225.112L237.256 234.028" stroke="#56C0CC" stroke-opacity="0.2" stroke-miterlimit="10"/>
<path d="M237.154 234.087C236.572 233.079 235.282 232.734 234.272 233.316C233.263 233.899 232.917 235.189 233.499 236.197C234.082 237.206 235.372 237.551 236.381 236.968C237.39 236.386 237.736 235.096 237.154 234.087Z" stroke="#56C0CC" stroke-opacity="0.2" stroke-miterlimit="10"/>
</g>
<path d="M358.501 44.3243L298.611 78.9019L292.093 103.195L257.945 122.91L227.454 114.745L183.154 140.321" stroke="#56C0CC" stroke-opacity="0.2" stroke-width="2" stroke-miterlimit="10"/>
<path d="M183.052 140.38C182.47 139.372 181.18 139.026 180.171 139.609C179.162 140.192 178.816 141.482 179.398 142.49C179.98 143.499 181.27 143.844 182.279 143.261C183.289 142.679 183.635 141.389 183.052 140.38Z" stroke="#56C0CC" stroke-opacity="0.2" stroke-width="2" stroke-miterlimit="10"/>
<path d="M385.849 91.6929L335.482 120.772L331.015 137.425L237.042 191.679L187.291 178.36L138.686 206.422" stroke="#56C0CC" stroke-opacity="0.2" stroke-width="2" stroke-miterlimit="10"/>
<path d="M138.686 206.422C138.104 205.413 136.814 205.068 135.805 205.651C134.795 206.233 134.449 207.523 135.032 208.532C135.614 209.54 136.904 209.885 137.913 209.303C138.922 208.72 139.268 207.43 138.686 206.422Z" stroke="#56C0CC" stroke-opacity="0.2" stroke-width="2" stroke-miterlimit="10"/>
<path d="M346.566 23.653L301.323 49.774L297.084 65.5737L274.996 78.3261L240.095 68.9864L206.21 88.5497" stroke="#56C0CC" stroke-opacity="0.2" stroke-width="2" stroke-miterlimit="10"/>
<path d="M206.211 88.5496C205.628 87.5411 204.338 87.1958 203.329 87.7785C202.32 88.3611 201.974 89.651 202.556 90.6595C203.138 91.668 204.428 92.0133 205.438 91.4306C206.447 90.848 206.793 89.5581 206.211 88.5496Z" stroke="#56C0CC" stroke-opacity="0.2" stroke-width="2" stroke-miterlimit="10"/>
<path d="M437.931 181.901L427.764 187.771L411.109 183.314L276.937 260.778L263.592 310.517L214.987 338.579" stroke="#56C0CC" stroke-opacity="0.2" stroke-miterlimit="10"/>
<path d="M214.987 338.579C214.405 337.57 213.115 337.225 212.106 337.808C211.097 338.391 210.751 339.68 211.333 340.689C211.915 341.697 213.205 342.043 214.214 341.46C215.224 340.877 215.57 339.588 214.987 338.579Z" stroke="#56C0CC" stroke-opacity="0.2" stroke-miterlimit="10"/>
<g opacity="0.57">
<path d="M445.691 195.341L396.143 223.948L370.513 217.095L321.703 245.276L311.157 284.585L283.09 300.789" stroke="#56C0CC" stroke-opacity="0.2" stroke-width="2" stroke-miterlimit="10"/>
<path d="M283.09 300.789C282.508 299.78 281.218 299.435 280.208 300.018C279.199 300.6 278.853 301.89 279.435 302.899C280.018 303.907 281.308 304.253 282.317 303.67C283.326 303.087 283.672 301.797 283.09 300.789Z" stroke="#56C0CC" stroke-opacity="0.2" stroke-width="2" stroke-miterlimit="10"/>
</g>
<g opacity="0.57">
<path d="M465.279 229.27L413.999 258.876L389.702 252.374L346.944 277.061L338.766 307.542L294.466 333.119" stroke="#56C0CC" stroke-opacity="0.2" stroke-miterlimit="10"/>
<path d="M294.466 333.119C293.884 332.11 292.594 331.765 291.584 332.348C290.575 332.93 290.229 334.22 290.811 335.229C291.394 336.237 292.684 336.583 293.693 336C294.702 335.417 295.048 334.127 294.466 333.119Z" stroke="#56C0CC" stroke-opacity="0.2" stroke-miterlimit="10"/>
</g>
<path d="M417.048 145.73L299.519 213.586L290.302 247.94L274.924 256.818L239.066 247.222L165.295 289.814L161.594 303.608L125.926 324.201" stroke="#56C0CC" stroke-opacity="0.2" stroke-miterlimit="10"/>
<path d="M126.348 323.987C125.882 323.18 124.85 322.904 124.043 323.37C123.235 323.836 122.958 324.868 123.424 325.675C123.89 326.481 124.922 326.758 125.729 326.292C126.537 325.825 126.814 324.793 126.348 323.987Z" fill="#56C0CC" fill-opacity="0.2"/>
<path d="M427.523 163.874L406.225 176.171L395.335 216.759L341.913 247.602L329.716 293.065L267.019 329.263L224.845 317.977L176.846 345.689" stroke="#56C0CC" stroke-opacity="0.2" stroke-miterlimit="10"/>
<path d="M176.859 345.711C176.393 344.904 175.361 344.628 174.553 345.094C173.746 345.56 173.469 346.592 173.935 347.399C174.401 348.206 175.433 348.482 176.24 348.016C177.047 347.55 177.324 346.518 176.859 345.711Z" fill="#56C0CC" fill-opacity="0.2"/>
<path d="M460.387 220.797L454.021 224.472L448.376 245.516L380.73 284.571L375.128 305.452L329.885 331.573L299.583 323.464L260.618 345.96" stroke="#56C0CC" stroke-opacity="0.2" stroke-width="2" stroke-miterlimit="10"/>
<path d="M262.08 345.117C261.614 344.31 260.582 344.034 259.774 344.5C258.967 344.966 258.69 345.998 259.156 346.805C259.622 347.611 260.654 347.888 261.461 347.421C262.269 346.955 262.546 345.923 262.08 345.117Z" fill="#56C0CC" fill-opacity="0.2"/>
<g opacity="0.57">
<path d="M423.487 156.884L351.53 198.429L343.692 227.642L290.263 258.49" stroke="#56C0CC" stroke-opacity="0.2" stroke-miterlimit="10"/>
<path d="M291.725 257.646C291.259 256.839 290.227 256.563 289.419 257.029C288.612 257.495 288.335 258.527 288.801 259.334C289.267 260.141 290.299 260.417 291.106 259.951C291.914 259.485 292.191 258.453 291.725 257.646Z" fill="#56C0CC" fill-opacity="0.2"/>
</g>
<g opacity="0.57">
<path d="M380.51 82.4456L351.208 99.3631L331.764 94.1596L229.481 153.213L215.5 149.471L192.907 162.515" stroke="#56C0CC" stroke-opacity="0.2" stroke-miterlimit="10"/>
<path d="M194.369 161.671C193.903 160.864 192.871 160.588 192.064 161.054C191.257 161.52 190.98 162.552 191.446 163.359C191.911 164.166 192.944 164.442 193.751 163.976C194.558 163.509 194.835 162.478 194.369 161.671Z" fill="#56C0CC" fill-opacity="0.2"/>
</g>
<path d="M396.253 109.713L383.214 117.241L342.63 106.381L280.942 141.996L235.471 129.828L172.774 166.026L161.461 208.193L99.8896 243.741" stroke="#56C0CC" stroke-opacity="0.2" stroke-miterlimit="10"/>
<path d="M101.347 242.89C100.881 242.083 99.8489 241.807 99.0415 242.273C98.2342 242.739 97.9574 243.771 98.4232 244.578C98.889 245.385 99.9211 245.661 100.728 245.195C101.536 244.729 101.813 243.697 101.347 242.89Z" fill="#56C0CC" fill-opacity="0.2"/>
<path d="M363.393 52.7973L342.876 64.6425L321.829 59.0102L268.334 89.8955L247.445 84.2991L202.202 110.42L194.078 140.725L155.113 163.221" stroke="#56C0CC" stroke-opacity="0.2" stroke-miterlimit="10"/>
<path d="M156.574 162.377C156.109 161.57 155.076 161.294 154.269 161.76C153.462 162.226 153.185 163.258 153.651 164.065C154.117 164.872 155.149 165.148 155.956 164.682C156.763 164.216 157.04 163.184 156.574 162.377Z" fill="#56C0CC" fill-opacity="0.2"/>
<g opacity="0.57">
<path d="M350.67 30.7601L339.209 37.3769L316.676 31.3468L283.756 50.3531L258.559 43.6104L222.19 64.6085L215.349 90.0812L187.831 105.969" stroke="#56C0CC" stroke-opacity="0.2" stroke-miterlimit="10"/>
<path d="M189.246 105.045C188.78 104.238 187.748 103.962 186.941 104.428C186.134 104.894 185.857 105.926 186.323 106.733C186.788 107.54 187.82 107.816 188.628 107.35C189.435 106.884 189.712 105.852 189.246 105.045Z" fill="#56C0CC" fill-opacity="0.2"/>
</g>
<path d="M369.191 62.8408L359.09 68.6726L352.529 93.127L237.456 159.565L225.608 203.725L191.138 223.626L187.403 237.548L112.449 280.822" stroke="#56C0CC" stroke-opacity="0.2" stroke-miterlimit="10"/>
<path d="M112.449 280.822C111.867 279.814 110.576 279.469 109.567 280.051C108.558 280.634 108.212 281.924 108.794 282.932C109.377 283.941 110.667 284.286 111.676 283.703C112.685 283.121 113.031 281.831 112.449 280.822Z" stroke="#56C0CC" stroke-opacity="0.2" stroke-miterlimit="10"/>
</g>
<defs>
<clipPath id="clip0_1_34859">
<rect width="316" height="384" fill="white" transform="translate(158.697 465.664) rotate(-120)"/>
</clipPath>
</defs>
</svg>
